<svg width="136" height="124" viewBox="0 0 136 124" fill="none" xmlns="http://www.w3.org/2000/svg">
<g id="Group 1321314533">
<g id="g18">
<path id="path20" d="M131.737 118.398C131.737 121.398 102.246 123.829 65.8683 123.829C29.4903 123.829 0 121.398 0 118.398C0 115.398 6.6823 112.966 65.8683 112.966C102.246 112.966 131.737 115.398 131.737 118.398Z" fill="#E8E5E6"/>
</g>
<g id="Group 1321314532">
<g id="g94">
<path id="path96" d="M85.4007 114.189C85.4007 116.54 83.4766 118.461 81.1211 118.461H13.2272C10.8728 118.461 8.94385 116.54 8.94385 114.189V14.7375C8.94385 12.3905 10.8728 10.4621 13.2272 10.4621H81.1211C83.4766 10.4621 85.4007 12.3905 85.4007 14.7375V114.189Z" fill="#C9CCD1"/>
</g>
<g id="g98">
<path id="path100" d="M81.0691 113.611H16.1914V18.6501H81.0691V113.611Z" fill="#9EA1AD"/>
</g>
<g id="g102">
<path id="path104" d="M79.6136 111.945H14.7358V16.9846H79.6136V111.945Z" fill="#FFFFFA"/>
</g>
<g id="g106">
<path id="path108" d="M63.0333 20.1982H31.3096V9.32941H63.0333V20.1982Z" fill="#CED1D2"/>
</g>
<g id="g110">
<path id="path112" d="M47.1735 7.92411C45.5147 7.92411 44.1692 6.57861 44.1692 4.91657C44.1692 3.25535 45.5147 1.90984 47.1735 1.90984C48.833 1.90984 50.1785 3.25535 50.1785 4.91657C50.1785 6.57861 48.833 7.92411 47.1735 7.92411ZM51.5637 6.66787C51.7778 6.12322 51.915 5.5356 51.915 4.91657C51.915 2.29746 49.7934 0.170932 47.1735 0.170932C44.5535 0.170932 42.4303 2.29746 42.4303 4.91657C42.4303 5.5356 42.565 6.12322 42.7816 6.66787H34.144V11.9912H60.2029V6.66787H51.5637Z" fill="#BABCBE"/>
</g>
<g id="g114">
<path id="path116" d="M23.4294 37.4131C23.0601 37.4131 22.7607 37.1228 22.7607 36.7664V36.6778C22.7607 36.3206 23.0601 36.0304 23.4294 36.0304H68.4531C68.8225 36.0304 69.1218 36.3206 69.1218 36.6778V36.7664C69.1218 37.1228 68.8225 37.4131 68.4531 37.4131H23.4294Z" fill="#D8E5DC"/>
</g>
<g id="g118">
<path id="path120" d="M23.4294 40.1904C23.0601 40.1904 22.7607 39.9002 22.7607 39.543V39.449C22.7607 39.0926 23.0601 38.8016 23.4294 38.8016H68.4531C68.8225 38.8016 69.1218 39.0926 69.1218 39.449V39.543C69.1218 39.9002 68.8225 40.1904 68.4531 40.1904H23.4294Z" fill="#D8E5DC"/>
</g>
<g id="g122">
<path id="path124" d="M23.4291 42.957C23.061 42.957 22.7607 42.6667 22.7607 42.3096V42.2214C22.7607 41.8642 23.061 41.5732 23.4291 41.5732H60.9367C61.3048 41.5732 61.6041 41.8642 61.6041 42.2214V42.3096C61.6041 42.6667 61.3048 42.957 60.9367 42.957H23.4291Z" fill="#D8E5DC"/>
</g>
<g id="g126">
<path id="path128" d="M23.4294 70.7412C23.0601 70.7412 22.7607 70.4509 22.7607 70.094V70.0058C22.7607 69.6488 23.0601 69.3579 23.4294 69.3579H68.4531C68.8225 69.3579 69.1218 69.6488 69.1218 70.0058V70.094C69.1218 70.4509 68.8225 70.7412 68.4531 70.7412H23.4294Z" fill="#D8E5DC"/>
</g>
<g id="g130">
<path id="path132" d="M23.3791 73.5195C23.0381 73.5195 22.7607 73.2293 22.7607 72.8723V72.7783C22.7607 72.4214 23.0381 72.1311 23.3791 72.1311H62.825C63.167 72.1311 63.4443 72.4214 63.4443 72.7783V72.8723C63.4443 73.2293 63.167 73.5195 62.825 73.5195H23.3791Z" fill="#D8E5DC"/>
</g>
<g id="g134">
<path id="path136" d="M23.3277 76.2861C23.0097 76.2861 22.7607 76.0017 22.7607 75.6383V75.5495C22.7607 75.1867 23.0097 74.9029 23.3277 74.9029H51.2544C51.5724 74.9029 51.8213 75.1867 51.8213 75.5495V75.6383C51.8213 76.0017 51.5724 76.2861 51.2544 76.2861H23.3277Z" fill="#D8E5DC"/>
</g>
<g id="g138">
<path id="path140" d="M23.4294 58.2373C23.0601 58.2373 22.7607 57.947 22.7607 57.5901V57.4962C22.7607 57.139 23.0601 56.8487 23.4294 56.8487H68.4531C68.8225 56.8487 69.1218 57.139 69.1218 57.4962V57.5901C69.1218 57.947 68.8225 58.2373 68.4531 58.2373H23.4294Z" fill="#D8E5DC"/>
</g>
<g id="g142">
<path id="path144" d="M23.4291 55.4609C23.061 55.4609 22.7607 55.1707 22.7607 54.8135V54.7246C22.7607 54.3681 23.061 54.0779 23.4291 54.0779H60.9367C61.3048 54.0779 61.6041 54.3681 61.6041 54.7246V54.8135C61.6041 55.1707 61.3048 55.4609 60.9367 55.4609H23.4291Z" fill="#D8E5DC"/>
</g>
<g id="g146">
<path id="path148" d="M23.4294 90.1787C23.0601 90.1787 22.7607 89.8885 22.7607 89.5315V89.4375C22.7607 89.0812 23.0601 88.7897 23.4294 88.7897H68.4531C68.8225 88.7897 69.1218 89.0812 69.1218 89.4375V89.5315C69.1218 89.8885 68.8225 90.1787 68.4531 90.1787H23.4294Z" fill="#D8E5DC"/>
</g>
<g id="g150">
<path id="path152" d="M23.4291 87.4014C23.061 87.4014 22.7607 87.1111 22.7607 86.7541V86.6654C22.7607 86.309 23.061 86.0181 23.4291 86.0181H60.9367C61.3048 86.0181 61.6041 86.309 61.6041 86.6654V86.7541C61.6041 87.1111 61.3048 87.4014 60.9367 87.4014H23.4291Z" fill="#D8E5DC"/>
</g>
<g id="g154">
<path id="path156" d="M23.298 92.9551C22.9959 92.9551 22.7607 92.6706 22.7607 92.3072V92.219C22.7607 91.8563 22.9959 91.5718 23.298 91.5718H48.4013C48.7024 91.5718 48.9385 91.8563 48.9385 92.219V92.3072C48.9385 92.6706 48.7024 92.9551 48.4013 92.9551H23.298Z" fill="#D8E5DC"/>
</g>
</g>
<g id="Group 1321314531">
<g id="g18_2">
<path id="path20_2" d="M103.274 92.5677C102.096 94.3228 100.12 95.379 98.0398 95.7001C97.1583 95.9786 96.2323 96.1066 95.2862 96.0243C93.0069 95.8264 90.8287 94.706 89.5821 92.7434C88.753 91.4378 88.5549 89.9136 88.8554 88.467C88.8572 87.6731 88.9871 86.8798 89.2779 86.1458C89.4095 85.8129 89.579 85.5082 89.7503 85.2055C89.4095 84.5497 89.6613 83.7469 90.2789 83.3573C90.897 82.9684 91.567 82.6465 92.2601 82.3953C92.3936 82.2911 92.5173 82.1783 92.6551 82.0777C92.9934 81.8333 93.4287 81.8327 93.8128 81.9772C94.6821 81.8266 95.6056 81.79 96.534 81.876C97.3723 81.7815 98.2275 81.8351 99.0182 82.0893C99.2175 82.1308 99.4151 82.1844 99.6095 82.2533C101.035 82.7629 102.173 83.7681 102.995 85.0265C104.423 87.21 104.778 90.3272 103.274 92.5677ZM124.459 87.5219C123.501 84.8724 117.775 85.2611 117.465 84.3868C116.861 82.4575 115.656 78.1165 116.138 77.5136C117.139 76.2627 119.72 74.0266 119.147 72.5307C118.943 71.9985 118.491 71.6065 118.049 71.2468C115.309 69.0151 112.31 67.1021 109.13 65.5586C106.9 65.4208 106.508 68.9742 104.441 69.3138C102.374 69.6533 101.877 69.3973 99.8595 68.8316C98.5957 68.4774 96.62 67.9952 96.1213 66.7814C95.6617 65.664 95.4459 64.0291 94.5461 63.2219C93.9877 62.7215 93.1501 62.7422 92.4021 62.7922C90.2709 62.9348 83.6886 63.7614 83.1706 65.8335C82.7577 67.4843 83.3766 68.5158 84.2023 70.786C84.5298 71.687 84.5441 72.6928 83.9454 73.4274C81.8921 75.9457 78.7571 78.3573 77.1895 77.2722C76.7518 76.9692 73.7816 75.7591 73.2652 75.8884C72.912 75.9768 72.691 76.3188 72.5128 76.6364C71.1574 79.0504 70.1977 81.6852 69.6774 84.4045C69.4541 85.5709 70.183 86.7121 71.3282 87.0261L74.4312 87.8765C74.1705 90.8369 75.5941 93.7385 76.095 96.668C75.0262 98.4641 71.892 100.148 71.0397 101.389C69.8943 103.058 77.1273 109.38 79.326 110.367C79.9613 110.653 82.3782 107.67 83.7199 107.007C84.1992 106.77 91.0567 108.866 93.1068 110.312C93.5488 110.625 94.8418 112.807 94.985 113.245C95.5672 115.025 96.0878 115.757 97.9069 115.309C101.494 114.426 105.037 112.939 108.428 111.48C109.469 111.031 110.676 110.285 110.472 109.169L109.144 104.886C110.712 103.56 114.35 98.6063 115.126 98.2189C115.312 98.1254 116.139 98.5272 117.113 98.929C118.548 99.5202 120.302 100.111 120.812 99.1232C121.199 98.3722 124.795 88.4531 124.459 87.5219Z" fill="#9EA1AD"/>
</g>
<path id="path22" d="M97.0655 114.522C96.8813 114.522 96.7093 114.486 96.566 114.389C95.9382 113.965 95.6909 112.504 95.2955 111.818C94.8332 111.016 94.3317 110.074 93.5765 109.509C93.0011 109.078 92.3154 108.766 91.6398 108.482C92.913 106.511 94.2834 104.251 94.2399 103.839C94.0196 101.762 89.8279 101.028 89.76 100.344C89.6926 99.2593 89.6215 97.2049 89.7611 96.025C90.7344 96.5457 91.729 97.034 92.7432 97.4899C98.2978 99.9864 104.233 101.581 110.283 102.369C109.72 103.029 109.131 103.664 108.486 104.228C108.247 104.437 108.154 104.835 108.247 105.133C108.434 105.737 108.621 106.34 108.808 106.944C109.023 107.636 109.521 108.562 109.535 109.288C109.557 110.407 107.034 111.075 106.208 111.422C104.478 112.149 102.734 112.845 100.955 113.443C100.072 113.74 99.1804 114.013 98.2798 114.252C97.9491 114.339 97.4784 114.522 97.0655 114.522ZM74.3525 105.077C74.2777 105.077 74.2031 105.075 74.1284 105.073C73.4386 104.369 72.8049 103.617 72.2932 102.806C71.7089 101.879 71.7365 101.881 72.4882 101.217C73.6178 100.218 74.9127 99.4132 75.961 98.322C76.3506 97.916 76.9164 97.3673 77.009 96.7914C77.0753 96.3785 76.9867 95.8908 76.8538 95.4057C76.8649 95.4126 76.876 95.419 76.887 95.4259C77.0229 95.4911 77.1558 95.5644 77.2834 95.6488C78.2199 96.2676 78.8605 97.1926 79.2304 98.244C79.8715 100.069 79.5759 102.376 78.0963 103.723C77.0811 104.647 75.7195 105.077 74.3525 105.077ZM72.6797 80.0438C72.4289 80.03 72.1751 80.0205 71.9224 80.0162C72.0207 79.7694 72.1233 79.5242 72.2299 79.2812C72.3772 79.537 72.5272 79.7917 72.6797 80.0438Z" fill="#828596"/>
<path id="path24" d="M91.7743 83.0798C94.2937 81.5837 97.5884 81.4101 100.222 82.7385C103.203 84.241 104.769 87.5066 103.937 90.7764C102.484 96.4907 94.9104 97.7172 90.9809 93.7628C88.1999 90.9648 88.824 86.7041 91.043 83.7559C91.7637 82.7985 90.1482 81.8697 89.4359 82.8166C87.0015 86.0508 86.3269 90.7424 88.8511 94.1237C90.7532 96.6717 93.9683 98.0415 97.1182 97.9444C100.604 97.8366 103.853 95.8958 105.256 92.6414C106.918 88.7888 105.744 84.3068 102.34 81.8469C99.0336 79.4581 94.3016 79.4135 90.8349 81.4728C89.8053 82.0836 90.741 83.6938 91.7743 83.0798Z" fill="#6B6B80"/>
<g id="g26">
<path id="path28" d="M83.2894 72.7669C82.1882 74.0887 80.9086 75.4388 79.3525 76.2229C78.1606 76.8233 77.6565 76.4097 76.5641 75.9439C75.6406 75.5506 74.5049 74.9601 73.4772 74.9527C72.1089 74.9435 71.5442 76.4134 71.0368 77.4513C70.2421 79.0779 69.6018 80.7825 69.1465 82.5345C68.7658 83.999 68.3813 85.5282 69.4188 86.8164C70.4836 88.1385 72.6395 88.348 74.1857 88.7718C73.958 88.4726 73.7303 88.1735 73.5025 87.8743C73.3058 91.003 74.641 93.8906 75.1995 96.9132C75.2308 96.6738 75.2621 96.435 75.2933 96.1961C74.5347 97.3755 73.2876 98.2161 72.1994 99.0668C71.4534 99.6501 70.3955 100.326 70.0771 101.27C69.5685 102.778 71.1471 104.48 72.0418 105.496C73.5434 107.199 75.2833 108.727 77.1131 110.068C77.6835 110.487 78.378 111.084 79.0808 111.262C79.9628 111.487 80.717 110.771 81.3263 110.238C82.1855 109.487 82.9991 108.427 84.0261 107.899C83.9051 107.961 83.8806 107.957 83.9422 107.952C83.9884 107.949 84.0818 107.945 84.2187 107.969C84.6566 108.047 85.0907 108.173 85.519 108.291C87.69 108.893 89.9397 109.605 91.9264 110.683C92.7935 111.154 93.2015 111.908 93.6901 112.756C94.1921 113.627 94.3789 114.688 95.0389 115.463C95.7284 116.273 96.6883 116.457 97.7071 116.293C99.531 115.998 101.359 115.298 103.085 114.658C105.043 113.932 106.995 113.143 108.899 112.281C110.116 111.73 111.475 110.814 111.416 109.315C111.385 108.536 111.004 107.733 110.776 106.999C110.532 106.212 110.288 105.424 110.044 104.637C109.964 104.938 109.885 105.24 109.804 105.542C111.108 104.403 112.171 102.967 113.272 101.639C113.802 101 114.328 100.354 114.884 99.7366C115.012 99.5949 115.411 99.3078 115.472 99.1199C115.503 99.0918 115.534 99.0636 115.565 99.0355C115.435 99.1358 115.276 99.1634 115.088 99.1183C115.09 99.113 115.441 99.2292 115.449 99.2335C116.705 99.8528 118.3 100.583 119.723 100.581C120.964 100.579 121.527 99.8635 121.943 98.8211C123.038 96.0714 124.009 93.2421 124.834 90.4001C125.095 89.4993 125.595 88.2743 125.371 87.3184C125.021 85.8315 123.327 85.0471 122.014 84.6528C121.266 84.4282 120.497 84.2915 119.731 84.1502C119.343 84.0786 118.363 83.9719 118.208 83.8458C118.41 84.0101 118.077 83.1854 118.023 82.9997C117.892 82.5456 117.765 82.0896 117.645 81.6318C117.4 80.6959 117.146 79.7409 117.017 78.7799C116.903 77.9214 116.924 78.0043 117.439 77.4365C118.147 76.6561 118.892 75.8831 119.461 74.9908C119.887 74.3228 120.233 73.5356 120.137 72.7276C119.995 71.5274 118.955 70.771 118.072 70.0766C115.872 68.3468 113.531 66.8019 111.057 65.4911C110.133 65.0014 109.301 64.4182 108.227 64.7328C107.426 64.9682 106.832 65.5704 106.339 66.2144C105.884 66.8074 105.508 67.5854 104.918 68.0604C104.162 68.6688 102.877 68.6073 101.969 68.4359C100.923 68.2392 99.8499 67.892 98.8384 67.5608C97.5326 67.1331 97.0422 66.6851 96.6391 65.3922C96.3079 64.3291 95.9527 63.1142 95.0186 62.4161C94.1442 61.7629 93.0455 61.8035 92.0082 61.8895C90.0878 62.0493 88.1423 62.3363 86.2864 62.8598C84.8519 63.2635 82.8771 63.8897 82.3182 65.4475C81.9589 66.4504 82.1022 67.6149 82.4111 68.6073C82.8202 69.9236 84.0372 71.6479 83.1435 72.9556C82.4663 73.9468 84.0786 74.879 84.751 73.8951C86.2111 71.7579 84.4905 69.7005 84.0516 67.5504C83.679 65.7228 84.8667 65.2404 86.4037 64.766C88.0016 64.2726 89.678 63.9924 91.339 63.8154C92.0266 63.7422 93.0012 63.5272 93.6409 63.781C94.6456 64.1792 94.7931 65.8586 95.1237 66.7601C95.7972 68.5969 97.6199 69.164 99.3521 69.6538C101.231 70.1847 103.431 70.8785 105.332 69.9955C106.781 69.3232 107.142 67.7064 108.317 66.7755C109.104 66.1523 110.096 67.0778 110.834 67.4871C112.023 68.1452 113.183 68.8562 114.309 69.6176C115.414 70.3642 116.511 71.1464 117.525 72.0129C118.538 72.8775 118.317 73.4441 117.589 74.4291C116.757 75.5555 115.107 76.5775 115.098 78.0959C115.088 79.8049 115.692 81.6084 116.153 83.2342C116.524 84.538 116.703 85.3627 118.099 85.7208C119.518 86.085 121.042 86.1297 122.388 86.7639C122.697 86.9101 123.02 87.0855 123.258 87.3363C123.353 87.436 123.626 87.9386 123.55 87.6229C123.617 87.9039 123.452 88.3474 123.363 88.7159C122.666 91.5629 121.632 94.3534 120.615 97.0989C120.452 97.5363 120.324 98.189 120.049 98.5728C120.163 98.4135 119.999 98.6964 119.97 98.7113C119.837 98.7787 119.372 98.6853 119.169 98.6449C118.361 98.4836 117.586 98.1221 116.831 97.8037C116.336 97.5957 115.737 97.2449 115.178 97.273C113.984 97.333 112.886 99.2027 112.221 100.004C111.032 101.434 109.894 102.997 108.489 104.226C108.249 104.435 108.157 104.833 108.249 105.131C108.436 105.735 108.623 106.338 108.81 106.942C109.025 107.634 109.523 108.56 109.537 109.287C109.559 110.405 107.036 111.073 106.21 111.421C104.48 112.147 102.736 112.843 100.957 113.441C100.074 113.738 99.1825 114.011 98.2817 114.25C97.8042 114.377 97.0336 114.702 96.5684 114.387C95.9404 113.963 95.6934 112.502 95.2976 111.816C94.8355 111.014 94.3341 110.072 93.5789 109.507C92.8279 108.945 91.8902 108.585 91.0323 108.227C89.0536 107.403 86.9692 106.65 84.8678 106.207C84.2256 106.071 83.6822 105.962 83.0861 106.292C82.1149 106.83 81.3082 107.731 80.4999 108.477C80.3614 108.605 79.3647 109.283 79.3594 109.428C79.3546 109.542 79.4103 109.509 79.4809 109.476C79.5484 109.444 79.6301 109.413 79.6874 109.509C79.6614 109.465 79.5452 109.452 79.5074 109.415C79.388 109.301 79.172 109.223 79.0303 109.134C78.2221 108.627 77.4677 108.032 76.7371 107.422C75.1341 106.08 73.4198 104.587 72.2953 102.804C71.7111 101.878 71.7387 101.879 72.4904 101.215C73.62 100.216 74.9149 99.4112 75.9631 98.3201C76.3527 97.9141 76.9186 97.3653 77.0111 96.7895C77.1443 95.9605 76.6528 94.8284 76.4317 94.026C75.8729 91.9981 75.2301 90.0044 75.364 87.8743C75.3894 87.4708 75.0569 87.0799 74.6806 86.9768C74.0534 86.8049 73.4262 86.6329 72.7989 86.461C72.0868 86.2658 71.0934 86.1616 70.7185 85.4321C70.3496 84.7142 70.7531 83.7564 70.9415 83.0292C71.1497 82.2254 71.3969 81.4314 71.6814 80.651C71.9861 79.8159 72.3387 78.9998 72.7354 78.2047C72.843 77.989 73.4566 76.7796 73.3768 76.8036C73.6485 76.7213 74.388 77.0881 74.6433 77.1784C75.1166 77.3462 75.5875 77.5275 76.0457 77.7333C76.788 78.0664 77.396 78.4947 78.251 78.4628C80.7844 78.37 83.1132 75.8745 84.6056 74.0832C85.3673 73.1688 84.0574 71.8451 83.2894 72.7669Z" fill="#6B6B80"/>
</g>
<path id="path30" d="M104.878 79.4181C104.465 79.1586 103.834 79.3178 103.604 79.7519C103.362 80.2105 103.498 80.7481 103.938 81.0257C104.036 81.0872 104.133 81.1499 104.228 81.2157C104.302 81.2666 104.458 81.3425 104.508 81.4189C104.482 81.3988 104.455 81.3786 104.429 81.3584C104.456 81.3802 104.483 81.402 104.51 81.4237C104.555 81.4603 104.599 81.497 104.643 81.5346C104.731 81.6095 104.817 81.6864 104.902 81.7655C105.061 81.9152 105.215 82.0723 105.362 82.2357C105.439 82.3212 105.515 82.4087 105.588 82.4979C105.614 82.5303 105.687 82.5961 105.697 82.6332C105.676 82.6072 105.656 82.5807 105.636 82.5547C105.656 82.5823 105.677 82.6099 105.698 82.638C105.965 83.001 106.2 83.3869 106.399 83.7908C106.45 83.8943 106.499 83.9993 106.545 84.1049C106.609 84.2472 106.539 84.0731 106.533 84.0736C106.538 84.0731 106.604 84.2583 106.608 84.2674C106.689 84.4839 106.759 84.7041 106.82 84.927C106.949 85.3962 107.486 85.7316 107.964 85.5772C108.445 85.4217 108.753 84.935 108.615 84.4319C108.046 82.3615 106.693 80.5608 104.878 79.4181Z" fill="white"/>
<path id="path32" d="M108.517 89.8223C109.715 89.8223 109.716 87.961 108.517 87.961C107.319 87.961 107.317 89.8223 108.517 89.8223Z" fill="white"/>
<path id="path34" d="M78.0971 103.722C76.9385 104.777 75.3291 105.188 73.7749 105.051C73.091 105.095 72.4019 105.024 71.7349 104.797C70.129 104.251 68.7591 103.059 68.2094 101.426C67.8437 100.339 67.9706 99.2068 68.4429 98.2181C68.5849 97.647 68.8186 97.0993 69.1578 96.6222C69.3117 96.4056 69.4875 96.2162 69.6645 96.0288C69.5352 95.4965 69.8584 94.9631 70.3723 94.7922C70.8858 94.6208 71.4249 94.5083 71.9683 94.4499C72.0829 94.3984 72.192 94.339 72.3092 94.2912C72.5956 94.175 72.9092 94.2514 73.1602 94.4234C73.8126 94.469 74.484 94.6065 75.137 94.8326C75.7574 94.9127 76.3637 95.1027 76.8878 95.4254C77.0238 95.4907 77.1566 95.5639 77.2843 95.6483C78.2207 96.2671 78.8613 97.1922 79.2312 98.2435C79.8723 100.068 79.5767 102.375 78.0971 103.722ZM94.2407 103.838C94.0205 101.762 89.8288 101.028 89.7608 100.344C89.668 98.848 89.5682 95.5098 90.022 95.1611C90.9635 94.4377 93.2175 93.2844 93.0699 92.1062C93.0174 91.6869 92.761 91.325 92.5063 90.9874C90.929 88.8964 89.1081 86.9884 87.0929 85.3145C86.2496 85.0513 85.5968 85.6361 84.9365 86.221C84.3586 86.7331 83.7753 87.2448 83.0525 87.1885C81.5043 87.067 81.1912 86.7942 79.8394 86.0299C78.9924 85.5512 77.6556 84.8549 77.511 83.8927C77.378 83.0074 77.5119 81.7915 77.0072 81.0517C76.6938 80.5926 76.087 80.4594 75.5394 80.3628C73.9798 80.0884 69.0953 79.5184 68.3556 80.919C67.7664 82.0341 68.0294 82.8864 68.222 84.6665C68.2983 85.3729 68.1308 86.1 67.5697 86.5224C65.6461 87.9724 62.9623 89.1538 62.0258 88.095C61.7643 87.7994 59.8403 86.4025 59.4456 86.4041C59.1757 86.4057 58.9561 86.6127 58.7716 86.8096C57.3687 88.3078 56.2115 90.0348 55.3559 91.9003C54.9888 92.7001 55.3115 93.6506 56.0803 94.0795L58.1637 95.2407C57.4522 97.3259 57.9635 99.6669 57.8057 101.864C56.7184 102.968 54.1643 103.625 53.331 104.368C52.2112 105.367 56.2994 111.198 57.7075 112.298C58.1144 112.616 60.3819 110.896 61.4654 110.656C61.8523 110.571 66.4181 113.293 67.6378 114.697C67.901 115 68.4457 116.8 68.4713 117.14C68.5751 118.525 68.8207 119.144 70.2091 119.144C72.948 119.142 75.7615 118.699 78.4604 118.248C79.2896 118.11 80.2906 117.786 80.3415 116.947L80.1435 113.629C81.5065 112.951 85.0018 110.029 85.6286 109.887C85.7889 109.851 86.3668 110.341 87.0472 110.832C87.9542 111.487 89.0428 112.141 89.5624 111.545C89.9742 111.073 94.3182 104.568 94.2407 103.838Z" fill="#9EA1AD"/>
<path id="path36" d="M80.1475 113.626C80.148 113.626 80.1485 113.625 80.1496 113.625C80.149 113.625 80.148 113.626 80.1475 113.626ZM55.3783 91.8492C55.3784 91.8492 55.3786 91.8487 55.3787 91.8487C55.3785 91.8487 55.3784 91.8492 55.3783 91.8492Z" fill="white"/>
<path id="path38" d="M70.2091 119.144C68.8207 119.144 68.5751 118.525 68.4713 117.14C68.4457 116.8 67.901 115 67.6378 114.697C66.4369 113.314 61.9919 110.655 61.4862 110.655C61.4783 110.655 61.4714 110.655 61.4654 110.656C60.4731 110.876 58.4874 112.337 57.8478 112.337C57.7891 112.337 57.7417 112.325 57.7075 112.298C56.4658 111.328 53.14 106.679 53.1392 104.909C53.1391 104.672 53.1987 104.486 53.331 104.368C54.1643 103.625 56.7184 102.968 57.8057 101.864C57.8295 101.534 57.8381 101.2 57.8379 100.864C57.8376 99.9535 57.7733 99.0285 57.7735 98.1172C57.7738 97.1311 57.8496 96.161 58.1637 95.2407L56.0803 94.0795C55.5262 93.7706 55.2038 93.1905 55.2044 92.5913C55.2046 92.3588 55.2533 92.1237 55.3558 91.9003C55.3588 91.8939 55.3617 91.8876 55.3647 91.8812C55.3661 91.878 55.3675 91.8748 55.369 91.8716C55.3702 91.869 55.3716 91.8658 55.3729 91.8631C55.375 91.8584 55.377 91.8541 55.3791 91.8493C55.3793 91.8493 55.3794 91.8488 55.3796 91.8488C56.0413 90.418 56.885 89.0726 57.8765 87.8471C59.6791 94.8124 63.8872 100.901 69.6453 105.402C73.4105 108.345 77.6622 110.636 82.1523 112.301C81.4077 112.843 80.704 113.334 80.2247 113.587C80.2242 113.587 80.2237 113.587 80.2237 113.587C80.2221 113.588 80.221 113.589 80.2194 113.589C80.2189 113.59 80.2184 113.591 80.2178 113.591C80.2168 113.591 80.2157 113.592 80.2141 113.592C80.2131 113.593 80.2115 113.594 80.2104 113.595C80.2094 113.595 80.2088 113.595 80.2083 113.596C80.2072 113.596 80.2062 113.597 80.2051 113.597C80.2046 113.597 80.2046 113.597 80.204 113.597C80.2003 113.6 80.1961 113.602 80.1924 113.604C80.1924 113.604 80.1924 113.604 80.1918 113.604C80.1865 113.607 80.1812 113.61 80.1759 113.612C80.1717 113.614 80.168 113.617 80.1637 113.619H80.1632C80.1595 113.62 80.1563 113.622 80.1526 113.624C80.152 113.625 80.151 113.625 80.1504 113.625C80.1494 113.626 80.1488 113.626 80.1483 113.626C80.1467 113.627 80.1451 113.628 80.1435 113.629L80.3415 116.947C80.2906 117.786 79.2896 118.11 78.4604 118.248C75.7615 118.699 72.948 119.142 70.2091 119.144Z" fill="#828596"/>
<path id="path40" d="M71.5483 95.092C73.545 94.487 75.8404 94.9052 77.4506 96.2591C79.1826 97.7154 79.7829 100.099 78.8122 102.176C76.9682 106.12 71.277 105.778 69.2076 102.225C67.8049 99.8166 69.0037 97.0302 71.0135 95.3914C71.4062 95.0713 71.3397 94.4085 71.0135 94.0752C70.6324 93.6856 70.0846 93.7594 69.6972 94.0752C67.3598 95.981 65.9876 99.2795 67.1457 102.205C68.0684 104.536 70.243 106.242 72.6865 106.742C75.4318 107.305 78.2211 106.349 79.872 104.042C81.6982 101.49 81.4944 97.9983 79.4671 95.6392C77.4565 93.2998 73.9731 92.4119 71.0534 93.2971C69.9101 93.6442 70.3974 95.4412 71.5483 95.092Z" fill="#6B6B80"/>
<path id="path42" d="M67.0991 85.7177C66.0683 86.4724 64.8625 87.2892 63.5796 87.518C62.7083 87.6729 62.3278 87.1051 61.6675 86.6247C61.1152 86.2235 60.4282 85.6482 59.7378 85.5134C58.6125 85.2937 57.8427 86.4087 57.2287 87.1661C56.4106 88.1745 55.6754 89.2481 55.0641 90.395C54.5194 91.4172 54.0045 92.4479 54.4876 93.598C55.02 94.8648 56.5661 95.4152 57.6931 96.0436C57.5505 95.6927 57.4079 95.3425 57.2653 94.9922C56.5831 97.2398 56.9978 99.5596 56.8742 101.863C56.965 101.644 57.0559 101.424 57.1468 101.205C56.3856 101.91 55.3584 102.283 54.4259 102.704C53.7331 103.017 52.8045 103.352 52.4093 104.054C51.7918 105.152 52.6218 106.686 53.1317 107.656C53.9133 109.143 54.8958 110.55 55.9734 111.837C56.3261 112.259 56.7421 112.832 57.2369 113.101C57.9099 113.466 58.6153 113.109 59.2316 112.798C59.9346 112.443 60.6669 112.068 61.3446 111.669C61.6482 111.49 61.185 111.512 61.5243 111.642C61.8819 111.778 62.2317 112.006 62.5632 112.195C63.943 112.982 65.6905 113.88 66.7383 115.101C67.7293 116.255 67.2317 118.03 68.1141 119.202C68.5514 119.783 69.202 120.007 69.9077 120.062C71.4369 120.182 73.0512 119.957 74.5673 119.767C76.0331 119.584 77.5485 119.426 78.9884 119.091C80.001 118.855 81.0519 118.315 81.2382 117.193C81.4239 116.072 81.141 114.76 81.0731 113.628C80.9197 113.896 80.7658 114.163 80.6124 114.431C81.7705 113.824 82.8075 112.969 83.8541 112.194C84.3174 111.851 84.7776 111.503 85.2542 111.179C85.3863 111.089 85.7446 110.941 85.829 110.81C85.8465 110.801 85.8645 110.791 85.882 110.782C86.1002 110.676 85.9346 110.673 85.3842 110.772C85.3794 110.787 85.6713 110.959 85.6947 110.981C86.4228 111.682 87.5883 112.471 88.5919 112.661C89.5679 112.847 90.1374 112.346 90.6602 111.616C91.9573 109.804 93.1774 107.904 94.2808 105.969C94.6289 105.358 95.1581 104.594 95.1703 103.862C95.1894 102.733 94.2028 101.828 93.3366 101.272C92.4625 100.711 91.4 100.442 90.5461 99.8855C90.7424 100.013 90.5742 100.355 90.6655 99.8924C90.6872 99.7815 90.6527 99.6196 90.6485 99.5065C90.6326 99.125 90.6214 98.7434 90.6161 98.3618C90.6055 97.6203 90.6347 96.8874 90.6787 96.1481C90.6856 96.0276 90.7026 95.8992 90.7424 95.7846C90.8396 95.5075 90.5105 96.043 90.7711 95.7612C90.9754 95.5404 91.3199 95.3929 91.5677 95.2241C92.1892 94.8001 92.8356 94.3601 93.3287 93.7858C94.4655 92.4638 93.8652 91.223 92.9126 89.9996C91.5985 88.3119 90.1379 86.7447 88.5351 85.3282C87.9428 84.8054 87.4721 84.306 86.6367 84.3182C86.0099 84.3278 85.4506 84.6239 84.9628 84.9906C84.4968 85.3414 84.0776 85.8881 83.5447 86.1301C82.8898 86.4273 82.0178 86.1428 81.3985 85.8382C80.7653 85.5267 80.139 85.1562 79.5404 84.7842C79.1917 84.5676 78.6976 84.3012 78.5009 83.9207C78.286 83.5046 78.3701 82.8714 78.3268 82.4171C78.1413 80.4742 77.1627 79.6643 75.2839 79.384C73.8188 79.1654 72.3149 79.0136 70.833 79.1033C69.6736 79.1733 68.2085 79.3485 67.5511 80.4482C67.1571 81.1068 67.0385 81.922 67.0695 82.6767C67.1088 83.6341 67.6997 85.1164 66.9107 85.8632C66.0391 86.689 67.357 88.0036 68.227 87.1794C69.5351 85.9412 69.0298 84.4042 68.941 82.8157C68.8618 81.3982 69.3651 81.0723 70.702 80.9725C71.9606 80.8786 73.2478 80.9762 74.497 81.1386C74.9277 81.1949 75.5762 81.1986 75.9542 81.4114C76.7967 81.8854 76.4269 83.3422 76.6127 84.1394C76.9271 85.4879 78.2586 86.2018 79.369 86.8328C80.5636 87.5116 81.7429 88.1458 83.1658 88.1171C84.4501 88.0922 85.1247 87.122 86.0917 86.4549C86.8145 85.956 87.0937 86.5207 87.6807 87.0594C88.4423 87.7584 89.1725 88.4918 89.8683 89.2571C90.5402 89.997 91.2227 90.7644 91.7959 91.5854C92.3564 92.3879 91.8097 92.7578 91.123 93.2721C90.243 93.9313 89.1699 94.3054 88.9104 95.4635C88.6301 96.7155 88.7326 98.1022 88.7814 99.3728C88.8185 100.354 88.8297 101.026 89.7346 101.558C90.6225 102.081 91.6378 102.352 92.4933 102.943C92.6918 103.08 92.9173 103.235 93.0665 103.431C93.1477 103.538 93.3419 103.968 93.3202 103.795C93.2952 103.597 93.2979 103.834 93.2936 103.845C93.2284 104.028 93.1238 104.202 93.0346 104.374C92.0395 106.291 90.8029 108.106 89.5929 109.892C89.3923 110.188 89.1906 110.615 88.9231 110.857C88.8122 110.958 88.9311 110.839 89.008 110.847C88.774 110.821 88.5643 110.693 88.3616 110.583C87.5602 110.148 86.6457 108.979 85.6835 108.958C84.7468 108.938 83.7167 109.994 83.0246 110.505C81.9409 111.307 80.8709 112.196 79.6731 112.824C79.3992 112.967 79.1933 113.317 79.2119 113.628C79.2384 114.068 79.2644 114.509 79.2909 114.95C79.3196 115.435 79.5685 116.367 79.4024 116.823C79.1784 117.437 77.4926 117.47 76.9259 117.561C75.4184 117.802 73.9059 118.016 72.3826 118.127C71.7435 118.174 69.9452 118.563 69.5332 117.957C69.3421 117.675 69.4116 117.105 69.3532 116.789C69.2901 116.447 69.1843 116.109 69.0795 115.778C68.6076 114.286 67.8738 113.541 66.63 112.618C65.3516 111.669 63.9746 110.758 62.5358 110.069C61.1931 109.426 60.1988 110.139 58.9817 110.815C58.7015 110.97 58.2255 111.108 58.0092 111.328C57.9845 111.34 57.9599 111.351 57.9352 111.362C57.6162 111.43 57.7275 111.497 58.2693 111.56C58.2624 111.567 58.039 111.339 58.0573 111.366C57.6792 110.806 57.1131 110.325 56.7024 109.778C55.7765 108.543 54.812 107.176 54.2746 105.718C54.1879 105.483 54.0155 105.118 54.0702 104.852C54.0069 105.159 54.3167 104.816 54.5755 104.682C55.5798 104.162 56.6749 103.811 57.6235 103.184C57.9576 102.963 58.4122 102.69 58.6086 102.333C58.9149 101.775 58.7713 100.805 58.7581 100.194C58.7236 98.5995 58.5901 97.0365 59.0604 95.4874C59.1775 95.101 58.9845 94.6324 58.6326 94.436C57.9751 94.0693 56.0277 93.3979 56.1467 92.4521C56.2725 91.4533 57.3137 90.1716 57.879 89.3681C58.2397 88.8554 58.6274 88.365 59.0417 87.8942C59.0845 87.8459 59.4669 87.328 59.3588 87.3911C59.4752 87.3232 58.9807 87.2972 59.5079 87.4288C60.7318 87.7345 61.3631 89.1802 62.6528 89.3904C64.5342 89.6966 66.603 88.3761 68.0387 87.3253C68.9954 86.6247 68.0678 85.0087 67.0991 85.7177Z" fill="#6B6B80"/>
<path id="path44" d="M80.6085 95.5235C80.7231 95.6424 80.8319 95.7661 80.9375 95.8935C80.9731 95.9359 80.9858 95.955 80.9444 95.8998C80.9694 95.9327 80.9938 95.9662 81.0177 95.9996C81.0665 96.0665 81.1132 96.1344 81.1588 96.2034C81.2496 96.3414 81.334 96.4831 81.4125 96.6285C81.4518 96.7012 81.4895 96.775 81.5256 96.8493C81.5436 96.8864 81.5611 96.9236 81.5781 96.9613C81.585 96.9761 81.6508 97.129 81.6179 97.0494C81.5893 96.9799 81.637 97.0982 81.6413 97.1104C81.6561 97.1486 81.671 97.1874 81.6848 97.2261C81.7134 97.3041 81.74 97.3821 81.7649 97.4607C81.8143 97.6183 81.8573 97.7781 81.8934 97.9394C81.9109 98.0201 81.9273 98.1007 81.9417 98.1825C81.9486 98.2228 81.9539 98.2637 81.9618 98.3045C81.982 98.4112 81.9517 98.1968 81.9624 98.3051C81.9793 98.4802 81.9947 98.6538 81.9995 98.83C82.0096 99.1903 82.31 99.5369 82.6895 99.5199C83.0546 99.5035 83.3905 99.2163 83.3794 98.83C83.3348 97.2335 82.6926 95.6976 81.584 94.5475C81.3329 94.2869 80.8574 94.2763 80.6085 94.5475C80.3516 94.8272 80.3405 95.2454 80.6085 95.5235Z" fill="white"/>
<path id="path46" d="M82.5225 102.694C83.4104 102.694 83.412 101.314 82.5225 101.314C81.6346 101.314 81.633 102.694 82.5225 102.694Z" fill="white"/>
<path id="path48" d="M62.2457 74.1347C57.8401 75.401 56.8136 76.4274 55.5474 80.833C54.2812 76.4274 53.2547 75.401 48.8491 74.1347C53.2547 72.8684 54.2812 71.842 55.5474 67.4364C56.8136 71.842 57.8401 72.8684 62.2457 74.1347Z" fill="#9EA1AD"/>
<path id="path52" d="M130.464 110.405C124.95 111.989 123.665 113.274 122.08 118.789C120.495 113.274 119.21 111.989 113.696 110.405C119.21 108.82 120.495 107.535 122.08 102.02C123.665 107.535 124.95 108.82 130.464 110.405Z" fill="#9EA1AD"/>
<path id="path54" d="M65.2347 61.6979C64.0117 62.0498 63.7267 62.3348 63.3752 63.5576C63.0236 62.3348 62.7387 62.0498 61.5156 61.6979C62.7387 61.3466 63.0236 61.0616 63.3752 59.8383C63.7267 61.0616 64.0117 61.3466 65.2347 61.6979Z" fill="#9EA1AD"/>
<path id="path58" d="M135.306 91.392C133.775 91.8319 133.418 92.1886 132.978 93.7197C132.538 92.1886 132.181 91.8319 130.65 91.392C132.181 90.952 132.538 90.5952 132.978 89.0643C133.418 90.5952 133.775 90.952 135.306 91.392Z" fill="#9EA1AD"/>
<path id="path60" d="M53.7199 62.251C53.0295 62.4495 52.8687 62.6103 52.6702 63.3008C52.4718 62.6103 52.311 62.4495 51.6206 62.251C52.311 62.0525 52.4718 61.8917 52.6702 61.2012C52.8687 61.8917 53.0295 62.0525 53.7199 62.251Z" fill="#9EA1AD"/>
</g>
</g>
</svg>
