<svg width="40" height="40" viewBox="0 0 40 40" fill="none" xmlns="http://www.w3.org/2000/svg">
<g id="Frame 1171279972">
<g clip-path="url(#clip0_2503_105944)">
<rect width="40" height="40" rx="20" fill="white"/>
<g id="Group">
<g id="Group_2">
<path id="Vector" d="M35.9326 43.3303L34.6011 37.624C34.1876 35.8542 32.8644 34.4317 31.1277 33.8942L23.5606 31.5703H15.4311L7.87231 33.8942C6.1356 34.4317 4.80412 35.8459 4.39889 37.624L3.06741 43.3303C2.69526 44.9347 3.91096 46.4647 5.55669 46.4647H16.3077L19.5083 45.0009L22.7088 46.4647H33.4598C35.089 46.4647 36.3047 44.9347 35.9326 43.3303Z" fill="#872B94"/>
</g>
<g id="Group_3">
<path id="Vector_2" d="M15.4311 31.5703L7.87231 33.8942C6.1356 34.4317 4.80412 35.8459 4.39889 37.624L3.06741 43.3303C2.69526 44.9347 3.91096 46.4647 5.55669 46.4647H16.3077L19.5083 45.0009L22.7088 46.4647H28.8038C21.0713 46.4647 15.4311 39.187 15.4311 31.5703Z" fill="#872B94"/>
</g>
<g id="Group_4">
<path id="Vector_3" d="M24.4699 25.5352H14.5293C15.6954 28.0244 15.4307 31.5723 15.4307 31.5723C15.4307 31.5723 16.0593 33.5984 19.4996 33.5984C22.9399 33.5984 23.5685 31.5723 23.5685 31.5723C23.5685 31.5723 23.3038 28.0244 24.4699 25.5352Z" fill="#FCBD9E"/>
</g>
<g id="Group_5">
<path id="Vector_4" d="M20.2519 36.6172H18.7468L16.2988 46.4668H22.6998L20.2519 36.6172Z" fill="#F8AC86"/>
</g>
<g id="Group_6">
<path id="Vector_5" d="M19.5009 40.7352C20.4685 40.7352 21.2955 41.3307 21.6345 42.1825L20.2534 36.625H18.7483L17.3672 42.1825C17.7063 41.3307 18.5333 40.7352 19.5009 40.7352Z" fill="#FFA378"/>
</g>
<g id="Group_7">
<path id="Vector_6" d="M17.3672 33.5977V36.2854C17.3672 36.2854 18.0701 38.6176 19.5009 38.6176C20.9316 38.6176 21.6428 36.2854 21.6428 36.2854V33.5977H17.3672Z" fill="#FFA378"/>
</g>
<g id="Group_8">
<path id="Vector_7" d="M15.448 30.0332L19.5004 33.5976L18.0614 35.8884C17.7554 36.3763 17.069 36.4259 16.6968 35.9876C16.3826 35.6238 16.0021 35.1524 15.6548 34.6231C14.7368 33.2502 14.6624 31.4805 15.448 30.0332Z" fill="#FFA378"/>
</g>
<g id="Group_9">
<path id="Vector_8" d="M23.5523 30.0332L19.5 33.5976L20.939 35.8884C21.245 36.3763 21.9314 36.4259 22.3035 35.9876C22.6178 35.6238 22.9982 35.1524 23.3456 34.6231C24.2635 33.2502 24.338 31.4805 23.5523 30.0332Z" fill="#FFA378"/>
</g>
<path id="Vector_9" d="M28.5731 19.5564C28.7715 18.6632 28.8708 17.7287 28.8708 16.7611C28.8708 10.6413 24.6779 5.6875 19.5008 5.6875C14.3238 5.6875 10.1309 10.6495 10.1309 16.7611C10.1309 17.7287 10.2384 18.6632 10.4286 19.5564H28.5731Z" fill="#262630"/>
<path id="Vector_10" d="M28.4271 17.7818C31.1009 15.108 30.5957 10.2678 27.2987 6.9708C24.0017 3.67382 19.1615 3.1686 16.4877 5.84235C13.814 8.51609 14.3192 13.3563 17.6162 16.6533C20.9132 19.9503 25.7534 20.4555 28.4271 17.7818Z" fill="#262630"/>
<g id="Group_10">
<path id="Vector_11" d="M12.6632 22.78C14.0265 22.4144 14.7615 20.7375 14.3049 19.0344C13.8483 17.3313 12.3729 16.247 11.0096 16.6126C9.64623 16.9781 8.91118 18.655 9.3678 20.3581C9.82443 22.0612 11.2998 23.1455 12.6632 22.78Z" fill="#FCBD9E"/>
</g>
<g id="Group_11">
<path id="Vector_12" d="M29.6389 20.364C30.0955 18.661 29.3605 16.984 27.9971 16.6185C26.6338 16.2529 25.1584 17.3372 24.7018 19.0403C24.2452 20.7434 24.9802 22.4203 26.3436 22.7859C27.7069 23.1514 29.1823 22.0671 29.6389 20.364Z" fill="#FCBD9E"/>
</g>
<g id="Group_12">
<path id="Vector_13" d="M12.1225 20.8196C12.1143 20.7369 12.0233 19.9677 10.8572 19.7031C10.5264 19.6287 10.3114 19.2979 10.3858 18.9588C10.4603 18.628 10.7911 18.413 11.1301 18.4874C13.2721 18.9671 13.3631 20.679 13.3631 20.7534L12.1225 20.803V20.8196Z" fill="#C16D36"/>
</g>
<g id="Group_13">
<path id="Vector_14" d="M26.8772 20.8195V20.8112L25.6367 20.7616C25.6367 20.6872 25.736 18.9753 27.8696 18.4956C28.2004 18.4212 28.5395 18.6279 28.6139 18.967C28.6884 19.2978 28.4816 19.6369 28.1425 19.7113C26.9847 19.9677 26.8855 20.7368 26.8772 20.8195Z" fill="#D58058"/>
</g>
<g id="Group_14">
<path id="Vector_15" d="M15.2823 13.0059C13.7028 14.5689 12.6855 16.9837 12.6855 19.6963C12.6855 24.402 15.7372 28.2145 19.5001 28.2145C23.2629 28.2145 26.3146 24.402 26.3146 19.6963C26.3146 18.7783 26.1988 17.8935 25.9838 17.0664C20.6496 17.0664 16.6552 14.1554 15.2823 13.0059Z" fill="#FCBD9E"/>
</g>
<g id="Group_15">
<path id="Vector_16" d="M16.515 19.6963C16.515 17.8521 16.9864 16.1402 17.7803 14.7508C16.6308 14.0892 15.779 13.4276 15.2745 13.0059C13.6949 14.5689 12.6777 16.9837 12.6777 19.6963C12.6777 24.402 15.7294 28.2145 19.4922 28.2145C20.1539 28.2145 20.7989 28.0987 21.4109 27.8754C18.5825 26.8416 16.515 23.575 16.515 19.6963Z" fill="#FCBD9E"/>
</g>
<g id="Group_16">
<path id="Vector_17" d="M19.4998 23.5584C18.7803 23.5584 18.1022 23.2442 17.6308 22.7066C17.4075 22.4503 17.4323 22.0533 17.6887 21.83C17.945 21.6067 18.342 21.6315 18.5653 21.8879C18.8051 22.1608 19.1442 22.3179 19.4998 22.3179C19.8554 22.3179 20.2028 22.1608 20.4343 21.8879C20.6576 21.6315 21.0546 21.6067 21.3109 21.83C21.5673 22.0533 21.5921 22.4503 21.3688 22.7066C20.8974 23.2442 20.2193 23.5584 19.4998 23.5584Z" fill="#D58058"/>
</g>
<g id="Group_17">
<path id="Vector_18" d="M22.3449 20.0103C22.0058 20.0103 21.7246 19.7291 21.7246 19.39V18.5382C21.7246 18.1992 22.0058 17.918 22.3449 17.918C22.6839 17.918 22.9651 18.1992 22.9651 18.5382V19.39C22.9651 19.7291 22.6922 20.0103 22.3449 20.0103Z" fill="#6D5C6C"/>
</g>
<g id="Group_18">
<path id="Vector_19" d="M16.6554 20.0103C16.3163 20.0103 16.0352 19.7291 16.0352 19.39V18.5382C16.0352 18.1992 16.3163 17.918 16.6554 17.918C16.9945 17.918 17.2757 18.1992 17.2757 18.5382V19.39C17.2757 19.7291 16.9945 20.0103 16.6554 20.0103Z" fill="#6D5C6C"/>
</g>
<g id="Group_19">
<path id="Vector_20" d="M17.0775 16.9671H16.2257C15.8867 16.9671 15.6055 16.6859 15.6055 16.3468C15.6055 16.0077 15.8867 15.7266 16.2257 15.7266H17.0775C17.4166 15.7266 17.6978 16.0077 17.6978 16.3468C17.6978 16.6859 17.4249 16.9671 17.0775 16.9671Z" fill="#6D5C6C"/>
</g>
</g>
</g>
</g>
<defs>
<clipPath id="clip0_2503_105944">
<rect width="40" height="40" rx="20" fill="white"/>
</clipPath>
</defs>
</svg>
