<svg width="40" height="40" viewBox="0 0 40 40" fill="none" xmlns="http://www.w3.org/2000/svg">
<g id="Frame 1171279972">
<g clip-path="url(#clip0_2503_105996)">
<rect width="40" height="40" rx="20" fill="white"/>
<g id="Group 427322290">
<g id="Page-1">
<g id="005---Factory-">
<path id="Shape" d="M26.0498 15.4205L20.6756 18.6425V15.9649C20.6756 15.7375 20.5535 15.5275 20.3559 15.415C20.1582 15.3024 19.9154 15.3045 19.7198 15.4205L14.3456 18.6425V15.9649C14.3455 15.7375 14.2235 15.5275 14.0259 15.415C13.8282 15.3024 13.5854 15.3045 13.3898 15.4205L8.01557 18.6425V15.9649C8.01553 15.7375 7.89347 15.5275 7.69584 15.415C7.4982 15.3024 7.25537 15.3045 7.05973 15.4205L1.68555 18.6425V19.9085H27.0056V15.9649C27.0056 15.7375 26.8835 15.5275 26.6859 15.415C26.4883 15.3024 26.2454 15.3045 26.0498 15.4205Z" fill="#F37435"/>
<path id="Shape_2" d="M33.3355 4.08468L29.6008 10.1571C28.7758 11.498 27.3139 12.3146 25.7395 12.3137C24.0747 12.3137 23.1378 11.706 22.6124 11.0224L22.5745 11.0477C17.5104 11.0477 17.5104 7.88269 17.5104 7.88269L17.5294 7.77508C16.4322 7.61087 15.5122 6.86076 15.1303 5.8191C14.6841 4.34009 15.2507 2.74265 16.5293 1.8755C17.5578 1.29261 18.7885 1.18409 19.9032 1.57799C19.9158 1.58432 19.9348 1.59065 19.9475 1.59698L20.0424 1.33112C20.5714 1.10247 21.1231 0.930593 21.6882 0.818387C23.2391 0.514546 24.9672 0.596836 26.2269 1.54634L26.3725 1.41341C26.8903 1.14349 27.4416 0.943411 28.0119 0.818387C29.4041 0.418205 30.9032 0.687153 32.0695 1.54634C32.8287 2.17751 33.2881 3.09848 33.3355 4.08468Z" fill="#FCEBE0"/>
<path id="Shape_3" d="M33.3359 4.7169C32.9924 4.71701 32.7115 4.44313 32.7029 4.09973C32.6618 3.29469 32.2839 2.54409 31.6616 2.03171C30.5469 1.08917 28.9827 1.25375 28.1503 1.43606C27.6344 1.54719 27.1361 1.72821 26.6691 1.97411C26.3614 2.12928 25.986 2.00975 25.8247 1.7052C25.6634 1.40065 25.7754 1.023 26.0766 0.855593C26.6451 0.555832 27.2518 0.33499 27.88 0.19917C29.4637 -0.250053 31.1664 0.0700985 32.4788 1.06385C33.3754 1.8115 33.9162 2.90182 33.9689 4.06808C33.9731 4.23608 33.9104 4.39888 33.7945 4.52059C33.6786 4.6423 33.5191 4.71292 33.3511 4.7169H33.3359Z" fill="#FFCCB2"/>
<path id="Shape_4" d="M27.6386 4.71623C27.2961 4.71637 27.0156 4.44399 27.0056 4.10158C26.943 3.27849 26.5164 2.52625 25.8422 2.05002C24.5578 1.08153 22.7645 1.25118 21.815 1.43791C21.2932 1.54042 20.7838 1.69873 20.2958 1.91013C19.9752 2.04997 19.602 1.90345 19.4622 1.58287C19.3223 1.26229 19.4688 0.889045 19.7894 0.749206C20.3606 0.502182 20.9564 0.316721 21.5669 0.195962C23.5729 -0.197132 25.3598 0.102278 26.605 1.03975C27.5852 1.74796 28.1967 2.85791 28.2716 4.06487C28.2766 4.23277 28.2146 4.39575 28.0993 4.51792C27.984 4.64009 27.8249 4.71143 27.657 4.71623H27.6386Z" fill="#FFCCB2"/>
<path id="Shape_5" d="M18.5863 8.51446C17.0671 8.51446 15.0941 7.85741 14.5225 6.00587C13.9843 4.25274 14.6635 2.35447 16.1917 1.34065C17.3768 0.656846 18.8009 0.522823 20.0929 0.97351C20.6155 1.14495 21.1216 1.36317 21.6051 1.6255C21.9067 1.793 22.0186 2.17115 21.8568 2.47582C21.695 2.78049 21.319 2.89948 21.0114 2.74338C20.5942 2.51666 20.1576 2.3277 19.7067 2.17875C18.7718 1.84052 17.7361 1.92506 16.8684 2.41042C15.8271 3.12145 15.3662 4.42487 15.729 5.6324C16.1005 6.82561 17.5001 7.24846 18.5863 7.24846C18.9359 7.24846 19.2193 7.53186 19.2193 7.88146C19.2193 8.23106 18.9359 8.51446 18.5863 8.51446Z" fill="#FFCCB2"/>
<path id="Shape_6" d="M22.574 11.6803C16.9403 11.6803 16.877 7.92025 16.877 7.88227C16.8752 7.53267 17.1572 7.24785 17.5068 7.2461C17.8564 7.24435 18.1412 7.52634 18.143 7.87594C18.143 7.99368 18.2696 10.4143 22.574 10.4143C22.9236 10.4143 23.207 10.6977 23.207 11.0473C23.207 11.3969 22.9236 11.6803 22.574 11.6803Z" fill="#FFCCB2"/>
<path id="Shape_7" d="M25.7396 12.9466C22.2347 12.9466 21.3086 10.4621 21.3086 9.14863C21.3086 8.79903 21.592 8.51562 21.9416 8.51562C22.2912 8.51562 22.5746 8.79903 22.5746 9.14863C22.5784 9.41196 22.7012 11.6838 25.7396 11.6838C26.0892 11.6838 26.3726 11.9672 26.3726 12.3168C26.3726 12.6664 26.0892 12.9498 25.7396 12.9498V12.9466Z" fill="#FFCCB2"/>
<path id="Shape_8" d="M31.5791 6.61523H33.8269C34.2549 6.61558 34.6017 6.96265 34.6017 7.39066V10.4132H30.8037V7.39066C30.8037 6.96241 31.1509 6.61523 31.5791 6.61523Z" fill="#FFCCB2"/>
<path id="Shape_9" d="M36.5003 23.7075L34.6013 9.14844H30.8033L28.9043 23.7075H36.5003Z" fill="#FCBD9E"/>
<path id="Shape_10" d="M25.7402 23.0742H37.7502C38.1092 23.0742 38.4003 23.3653 38.4003 23.7243V35.1013H25.7402V23.0742Z" fill="#FFA378"/>
<path id="Shape_11" d="M30.1711 26.8715H27.006C26.6565 26.8715 26.373 26.5881 26.373 26.2385C26.373 25.8889 26.6565 25.6055 27.006 25.6055H30.1711C30.5207 25.6055 30.8041 25.8889 30.8041 26.2385C30.8041 26.5881 30.5207 26.8715 30.1711 26.8715Z" fill="white"/>
<path id="Shape_12" d="M35.8683 26.8715H32.7033C32.3537 26.8715 32.0703 26.5881 32.0703 26.2385C32.0703 25.8889 32.3537 25.6055 32.7033 25.6055H35.8683C36.2179 25.6055 36.5013 25.8889 36.5013 26.2385C36.5013 26.5881 36.2179 26.8715 35.8683 26.8715Z" fill="white"/>
<path id="Rectangle-path" d="M27.0056 18.6426H1.68555V35.1006H27.0056V18.6426Z" fill="#FFDBC7"/>
<path id="Shape_13" d="M7.38256 21.8088C7.38256 22.1584 7.09916 22.4418 6.74956 22.4418H1.68555V21.1758H6.74956C7.09916 21.1758 7.38256 21.4592 7.38256 21.8088Z" fill="#FFDBC7"/>
<path id="Shape_14" d="M16.2445 22.4418H9.28144C8.93184 22.4418 8.64844 22.1584 8.64844 21.8088C8.64844 21.4592 8.93184 21.1758 9.28144 21.1758H16.2445C16.5941 21.1758 16.8775 21.4592 16.8775 21.8088C16.8775 22.1584 16.5941 22.4418 16.2445 22.4418Z" fill="#FFDBC7"/>
<path id="Rectangle-path_2" d="M8.01578 26.2383H4.85078C4.50118 26.2383 4.21777 26.5217 4.21777 26.8713V29.4033C4.21777 29.7529 4.50118 30.0363 4.85078 30.0363H8.01578C8.36538 30.0363 8.64879 29.7529 8.64879 29.4033V26.8713C8.64879 26.5217 8.36538 26.2383 8.01578 26.2383Z" fill="white"/>
<path id="Rectangle-path_3" d="M14.9787 26.2383H11.8137C11.4641 26.2383 11.1807 26.5217 11.1807 26.8713V29.4033C11.1807 29.7529 11.4641 30.0363 11.8137 30.0363H14.9787C15.3283 30.0363 15.6117 29.7529 15.6117 29.4033V26.8713C15.6117 26.5217 15.3283 26.2383 14.9787 26.2383Z" fill="white"/>
<path id="Shape_15" d="M24.4738 25.0127V35.1009H18.1438V25.0127C18.1342 24.6527 18.4168 24.3522 18.7768 24.3398H23.8408C24.2008 24.3522 24.4834 24.6527 24.4738 25.0127Z" fill="#FFF0EB"/>
<path id="Shape_16" d="M22.5746 26.8713C22.5746 27.2209 22.2912 27.5043 21.9416 27.5043H18.1436V26.2383H21.9416C22.2912 26.2383 22.5746 26.5217 22.5746 26.8713Z" fill="#FFFEFD"/>
<path id="Shape_17" d="M22.5746 29.4045C22.5746 29.7541 22.2912 30.0375 21.9416 30.0375H18.1436V28.7715H21.9416C22.2912 28.7715 22.5746 29.0549 22.5746 29.4045Z" fill="#FFFEFD"/>
<path id="Shape_18" d="M22.5746 31.9357C22.5746 32.2853 22.2912 32.5687 21.9416 32.5687H18.1436V31.3027H21.9416C22.2912 31.3027 22.5746 31.5861 22.5746 31.9357Z" fill="#FFFEFD"/>
<path id="Shape_19" d="M31.4367 30.0371H33.9687C34.3183 30.0371 34.6017 30.3205 34.6017 30.6701V34.4681H30.8037V30.6701C30.8037 30.3205 31.0871 30.0371 31.4367 30.0371Z" fill="#E57E25"/>
<path id="Shape_20" d="M38.3997 34.4688H1.68555V36.3678C1.68555 36.7174 1.96895 37.0008 2.31855 37.0008H37.7667C38.1162 37.0008 38.3997 36.7174 38.3997 36.3678V34.4688Z" fill="#FFA378"/>
</g>
</g>
<g id="Group">
<g id="Group_2">
<path id="Vector" d="M30.7376 33.7283V40.0152C30.7376 40.4246 30.4056 40.7566 29.9961 40.7566H11.802C11.3925 40.7566 11.0605 40.4246 11.0605 40.0152V33.7265C11.0605 32.2604 11.9287 30.9335 13.2721 30.3463C14.3829 29.8607 16.9684 28.7228 16.8951 28.7546H16.9017H24.8965H24.903C26.7117 29.5504 28.6208 30.3897 28.5321 30.3507C29.8722 30.9393 30.7376 32.2646 30.7376 33.7283Z" fill="#872B94"/>
</g>
<g id="Group_3">
<path id="Vector_2" d="M24.8397 25.1699L24.8952 31.501H16.8994L16.958 25.1699H24.8397Z" fill="#FCBD9E"/>
</g>
<g id="Group_4">
<path id="Vector_3" d="M23.9444 24.7091C27.9952 23.0301 29.9179 18.3851 28.2388 14.3343C26.5597 10.2835 21.9147 8.36078 17.8639 10.0399C13.8131 11.7189 11.8905 16.3639 13.5695 20.4147C15.2486 24.4655 19.8936 26.3882 23.9444 24.7091Z" fill="#262630"/>
</g>
<g id="Group_5">
<path id="Vector_4" d="M20.3038 11.3097C20.2203 11.3097 20.1496 11.2466 20.1413 11.1622C20.133 11.0723 20.1987 10.9927 20.2885 10.9841C20.4899 10.9649 20.6957 10.9551 20.9008 10.9551C20.9907 10.9551 21.064 11.028 21.064 11.1182C21.064 11.2084 20.9907 11.2813 20.9008 11.2813C20.7065 11.2813 20.5109 11.2906 20.3191 11.309C20.314 11.3093 20.3089 11.3097 20.3038 11.3097Z" fill="white"/>
</g>
<g id="Group_6">
<path id="Vector_5" d="M14.9308 15.6532C14.9142 15.6532 14.8977 15.6507 14.8817 15.6456C14.7957 15.6185 14.7479 15.5267 14.7753 15.4407C15.3844 13.518 16.8856 11.9738 18.7908 11.3102C18.8768 11.28 18.9686 11.3249 18.9985 11.4106C19.0278 11.4956 18.9832 11.5883 18.8978 11.618C17.0895 12.2485 15.6648 13.7143 15.0862 15.5395C15.064 15.6089 15.0002 15.6532 14.9308 15.6532Z" fill="white"/>
</g>
<g id="Group_7">
<path id="Vector_6" d="M22.699 32.8239L21.5177 34.8196H20.2451L19.0703 32.8435L20.9042 31.502L22.699 32.8239Z" fill="#F799FF"/>
</g>
<g id="Group_8">
<path id="Vector_7" d="M22.408 40.7568L21.5164 34.8203H20.2357L19.3398 40.7568H22.408Z" fill="#F799FF"/>
</g>
<g id="Group_9">
<g id="Group_10">
<path id="Vector_8" d="M14.8732 18.9121C14.8926 18.9121 14.9115 18.9145 14.9309 18.915V23.2083C14.9115 23.2088 14.8926 23.2112 14.8732 23.2112C13.6859 23.2112 12.7236 22.2489 12.7236 21.0617C12.7236 19.8744 13.6859 18.9121 14.8732 18.9121Z" fill="#FCBD9E"/>
</g>
<g id="Group_11">
<path id="Vector_9" d="M26.9249 18.9121C26.9054 18.9121 26.8865 18.9145 26.8672 18.915V23.2083C26.8865 23.2088 26.9054 23.2112 26.9249 23.2112C28.1121 23.2112 29.0744 22.2489 29.0744 21.0617C29.0744 19.8744 28.1121 18.9121 26.9249 18.9121Z" fill="#FCBD9E"/>
</g>
</g>
<g id="Group_12">
<path id="Vector_10" d="M27.1592 18.6932V21.94C27.1592 25.3952 24.3577 28.2019 20.8973 28.2019C17.4265 28.2019 14.6406 25.3817 14.6406 21.94V17.64C15.3306 18.1069 16.1607 18.3819 17.053 18.3819C18.599 18.3819 19.9531 17.557 20.7106 16.3223C21.3694 18.0343 23.0244 19.2535 24.9751 19.2535C25.7636 19.2535 26.5107 19.0511 27.1592 18.6932Z" fill="#FCBD9E"/>
</g>
<g id="Group_13">
<path id="Vector_11" d="M20.9035 24.9381C20.2848 24.9381 19.6667 24.7046 19.1958 24.2375C19.0684 24.1107 19.0671 23.904 19.1946 23.7762C19.3214 23.6485 19.5272 23.6472 19.6559 23.7743C20.3427 24.4567 21.4629 24.4567 22.151 23.7743C22.2791 23.6472 22.4856 23.6485 22.613 23.7762C22.7398 23.904 22.7385 24.1107 22.6111 24.2375C22.1402 24.7046 21.5215 24.9381 20.9035 24.9381Z" fill="#8F643E"/>
</g>
<g id="Group_14">
<path id="Vector_12" d="M17.963 22.2112C18.4135 22.2112 18.7786 21.8461 18.7786 21.3957C18.7786 20.9452 18.4135 20.5801 17.963 20.5801C17.5126 20.5801 17.1475 20.9452 17.1475 21.3957C17.1475 21.8461 17.5126 22.2112 17.963 22.2112Z" fill="#8F643E"/>
</g>
<g id="Group_15">
<path id="Vector_13" d="M23.3498 22.2112C23.8002 22.2112 24.1653 21.8461 24.1653 21.3957C24.1653 20.9452 23.8002 20.5801 23.3498 20.5801C22.8993 20.5801 22.5342 20.9452 22.5342 21.3957C22.5342 21.8461 22.8993 22.2112 23.3498 22.2112Z" fill="#8F643E"/>
</g>
<g id="Group_16">
<path id="Vector_14" d="M20.8995 31.4967L19.263 33.0873C18.6818 33.6532 17.7539 33.643 17.188 33.0669L14.124 29.9724L16.8974 28.7539L20.8995 31.4967Z" fill="#C45CD4"/>
</g>
<g id="Group_17">
<path id="Vector_15" d="M27.6789 29.9724L24.615 33.0669C24.044 33.643 23.1161 33.6481 22.5349 33.0873L20.8984 31.4916L24.8954 28.7539H24.9005L25.9711 29.223L27.6789 29.9724Z" fill="#C45CD4"/>
</g>
</g>
</g>
</g>
</g>
<defs>
<clipPath id="clip0_2503_105996">
<rect width="40" height="40" rx="20" fill="white"/>
</clipPath>
</defs>
</svg>
