<svg width="58" height="60" viewBox="0 0 58 60" fill="none" xmlns="http://www.w3.org/2000/svg">
<g id="Group 427321908">
<g id="Group 427321906">
<path id="Vector" d="M10.5585 1.21859C10.9341 1.04508 11.3385 0.962891 11.7526 0.962891H40.412C41.4713 0.962891 42.338 1.78478 42.338 2.7893V52.1024C42.338 53.1069 41.4713 53.9288 40.412 53.9288H3.81739C2.75807 53.9288 1.89136 53.1069 1.89136 52.1024V10.3141C1.89136 9.92143 1.97803 9.53788 2.161 9.18174L10.5585 1.21859Z" fill="#F9F9FB"/>
<path id="Vector_2" d="M10.5584 1.2334V7.70487C10.5584 8.76418 9.69167 9.6309 8.63236 9.6309H2.16089C2.29571 9.32273 2.48831 9.03383 2.7387 8.78344L9.71094 1.81121C9.96132 1.56082 10.2502 1.36822 10.5584 1.2334Z" fill="#F9F9FB"/>
<path id="Vector_3" d="M15.9782 23.7284C14.5722 25.1344 13.638 27.0315 13.4647 29.1405C13.4262 29.545 13.0699 29.8532 12.6558 29.8532H7.51326C7.06064 29.8532 6.68506 29.4776 6.70432 29.025C6.90656 25.0959 8.5822 21.5712 11.2016 18.9615L12.4824 18.3047L16.3345 22.149L15.9782 23.7284Z" fill="#F2F2F5"/>
<path id="Vector_4" d="M22.1109 14.4453L23.0739 15.4083V20.2234L22.1109 21.1864C19.713 21.1864 17.5462 22.1591 15.9765 23.7288L11.2 18.9619C13.9927 16.1691 17.8448 14.4453 22.1109 14.4453Z" fill="#EDEDF0"/>
<path id="Vector_5" d="M33.025 18.9619L33.6702 20.2234L29.8181 24.0678L28.2484 23.7288C26.6787 22.1591 24.5119 21.1864 22.114 21.1864V14.4453C26.3802 14.4453 30.2322 16.1691 33.025 18.9619Z" fill="#D6D6DB"/>
<path id="Vector_6" d="M37.5207 29.0254C37.5399 29.478 37.1644 29.8536 36.7117 29.8536H31.5692C31.1551 29.8536 30.7988 29.5455 30.7603 29.141C30.587 27.032 29.6528 25.1348 28.2468 23.7288L33.0234 18.9619C35.6428 21.5717 37.3184 25.0963 37.5207 29.0254Z" fill="#E1E1E3"/>
<path id="Vector_7" d="M25.0016 29.826C25.0016 31.597 23.4387 32.9991 21.6292 32.7025C20.2106 32.4704 19.2091 31.1463 19.2235 29.696C19.2592 26.2715 20.6835 21.9321 21.5184 19.6768C21.7235 19.1221 22.4988 19.1201 22.7039 19.6748C23.5494 21.9581 25.0007 26.3803 25.0007 29.825L25.0016 29.826Z" fill="#E1E1E3"/>
<g id="Group">
<path id="Vector_8" d="M42.3362 8.08933C42.8688 8.08933 43.2992 7.68756 43.2992 7.19052V2.69644C43.2992 1.20981 42.003 0 40.4102 0H11.7527C10.7387 0 9.74581 0.383794 9.02933 1.05341L2.05517 7.56263C1.33772 8.23135 0.926514 9.15803 0.926514 10.1045V51.2325C0.926514 52.7191 2.22273 53.9289 3.81556 53.9289H40.4102C42.003 53.9289 43.2992 52.7191 43.2992 51.2325V10.7858C43.2992 10.2887 42.8688 9.88696 42.3362 9.88696C41.8037 9.88696 41.3732 10.2887 41.3732 10.7858V51.2325C41.3732 51.7286 40.9418 52.1313 40.4102 52.1313H3.81556C3.28398 52.1313 2.85255 51.7286 2.85255 51.2325V10.1045C2.85255 10.0308 2.86603 9.95887 2.87566 9.88696H8.63064C10.2235 9.88696 11.5197 8.67716 11.5197 7.19052V1.8192C11.5977 1.81021 11.6747 1.79763 11.7527 1.79763H40.4102C40.9418 1.79763 41.3732 2.2003 41.3732 2.69644V7.19052C41.3732 7.68756 41.8037 8.08933 42.3362 8.08933ZM8.63064 8.08933H4.21425L9.59366 3.06855V7.19052C9.59366 7.68667 9.16223 8.08933 8.63064 8.08933Z" fill="#C9CCD1"/>
<path id="Vector_9" d="M14.4271 29.2181C14.6726 26.1808 16.7325 23.6056 19.5339 22.6031C18.882 24.8104 18.2868 27.423 18.2628 29.6871C18.2425 31.6459 19.6235 33.3514 21.4763 33.6547C21.6872 33.6884 21.8981 33.7058 22.1081 33.7058C23.0162 33.7058 23.8983 33.388 24.5975 32.7938C25.4671 32.0542 25.9669 30.9727 25.9669 29.8277C25.9669 27.5338 25.3611 24.8595 24.6947 22.6031C27.4971 23.6056 29.558 26.1827 29.8035 29.2306C29.8864 30.1205 30.6635 30.8167 31.5716 30.8167H36.7141C37.1957 30.8167 37.6627 30.6174 37.9969 30.2688C38.332 29.9211 38.5044 29.4646 38.4851 28.9735C38.0219 20.2871 30.8311 13.4824 22.1148 13.4824C13.3986 13.4824 6.20772 20.2871 5.74451 28.986C5.72429 29.4646 5.89763 29.9211 6.23276 30.2688C6.56692 30.6174 7.03399 30.8167 7.5155 30.8167H12.658C13.5661 30.8167 14.3433 30.1195 14.4271 29.2181ZM16.0266 22.4115L12.5993 18.9889C14.9221 16.9608 17.891 15.6694 21.1518 15.4547V18.6297C20.9178 18.8089 20.7271 19.0487 20.6183 19.3424C20.5008 19.6611 20.3698 20.0252 20.235 20.4142C18.6595 20.7282 17.2246 21.4292 16.0257 22.4105L16.0266 22.4115ZM23.3504 31.3252C22.9161 31.694 22.3604 31.852 21.7874 31.7518C20.8648 31.6016 20.1782 30.7223 20.1888 29.7064C20.2186 26.8173 21.2972 23.2041 22.1148 20.8716C22.9459 23.2455 24.0409 26.9232 24.0409 29.8258C24.0409 30.4055 23.7885 30.9515 23.3504 31.3252ZM23.6104 19.3404C23.5016 19.0467 23.3118 18.8089 23.0778 18.6297V15.4547C26.3396 15.6694 29.3086 16.9608 31.6313 18.988L28.202 22.4115C27.0041 21.4302 25.5692 20.7301 23.9937 20.4152C23.8588 20.0252 23.7288 19.6602 23.6104 19.3404ZM31.7074 28.8907C31.5167 26.9685 30.7463 25.2004 29.5715 23.7684L33.0027 20.342C35.0298 22.6523 36.3366 25.6145 36.5504 28.8907H31.7074ZM7.67921 28.8907C7.89589 25.6145 9.20174 22.6523 11.2279 20.3429L14.6572 23.7674C13.4804 25.2004 12.71 26.9704 12.5222 28.8907H7.67921Z" fill="#C9CCD1"/>
<path id="Vector_10" d="M27.8929 5.77845C27.8929 5.2459 27.4624 4.81543 26.9298 4.81543H17.2997C16.7671 4.81543 16.3367 5.2459 16.3367 5.77845C16.3367 6.31099 16.7671 6.74146 17.2997 6.74146H26.9298C27.4624 6.74146 27.8929 6.31099 27.8929 5.77845Z" fill="#C9CCD1"/>
<path id="Vector_11" d="M37.3064 38.5205H7.88088C7.22999 38.5205 6.70386 38.951 6.70386 39.4835C6.70386 40.0161 7.22999 40.4465 7.88088 40.4465H37.3064C37.9573 40.4465 38.4834 40.0161 38.4834 39.4835C38.4834 38.951 37.9573 38.5205 37.3064 38.5205Z" fill="#C9CCD1"/>
<path id="Vector_12" d="M20.1864 8.66699C19.6539 8.66699 19.2234 9.09746 19.2234 9.63001C19.2234 10.1626 19.6539 10.593 20.1864 10.593H24.0385C24.571 10.593 25.0015 10.1626 25.0015 9.63001C25.0015 9.09746 24.571 8.66699 24.0385 8.66699H20.1864Z" fill="#C9CCD1"/>
<path id="Vector_13" d="M37.3064 45.2617H7.88088C7.22999 45.2617 6.70386 45.6922 6.70386 46.2247C6.70386 46.7573 7.22999 47.1878 7.88088 47.1878H37.3064C37.9573 47.1878 38.4834 46.7573 38.4834 46.2247C38.4834 45.6922 37.9573 45.2617 37.3064 45.2617Z" fill="#C9CCD1"/>
</g>
</g>
<g id="Group 427321907">
<path id="Ellipse 15704" d="M56.0735 43.0012C56.0735 51.8374 48.9104 59.0005 40.0742 59.0005C31.2381 59.0005 24.075 51.8374 24.075 43.0012C24.075 34.1651 31.2381 27.002 40.0742 27.002C48.9104 27.002 56.0735 34.1651 56.0735 43.0012Z" fill="#EDEDF0" stroke="#C9CCD1" stroke-width="2"/>
<path id="path98" d="M43.3665 43.4267L47.178 39.6299C47.5352 39.2542 47.7309 38.7551 47.7234 38.2384C47.7161 37.7217 47.5063 37.2284 47.1387 36.8628C46.7711 36.4975 46.2746 36.2889 45.755 36.2816C45.2348 36.2744 44.7326 36.4686 44.3546 36.8235L40.5347 40.6203L36.7232 36.8235C36.5397 36.6307 36.3192 36.4764 36.0747 36.3695C35.8302 36.2629 35.5666 36.2059 35.2996 36.2022C35.0326 36.1984 34.7676 36.2478 34.5202 36.3475C34.2728 36.4475 34.048 36.5955 33.859 36.7833C33.6703 36.9709 33.5212 37.1943 33.4209 37.4402C33.3203 37.6862 33.2706 37.9497 33.2744 38.2153C33.2781 38.4806 33.3353 38.7424 33.4429 38.9855C33.5501 39.2285 33.7055 39.4476 33.8997 39.6299L37.7176 43.4267L33.8997 47.2234C33.7055 47.4058 33.5501 47.6249 33.4429 47.8679C33.3353 48.1109 33.2781 48.3728 33.2744 48.6381C33.2706 48.9036 33.3203 49.1669 33.4209 49.4131C33.5212 49.6591 33.6703 49.8824 33.859 50.07C34.048 50.2576 34.2728 50.4058 34.5202 50.5058C34.7676 50.6055 35.0326 50.6549 35.2996 50.6512C35.5666 50.6474 35.8302 50.5905 36.0747 50.4838C36.3192 50.3769 36.5397 50.2226 36.7232 50.0298L40.5431 46.2331L44.3632 50.0298C44.7447 50.3636 45.2398 50.5405 45.7481 50.524C46.2561 50.5078 46.7388 50.2995 47.0977 49.9417C47.4566 49.5836 47.6647 49.1033 47.6797 48.5985C47.6947 48.0933 47.5153 47.6014 47.178 47.2234L43.3665 43.4267Z" fill="#9EA1AD"/>
</g>
</g>
</svg>
