<svg width="91" height="104" viewBox="0 0 91 104" fill="none" xmlns="http://www.w3.org/2000/svg">
<g id="Group 1321314549">
<path id="path58" d="M8 108C3.58172 108 0 104.418 0 100V8C0 3.58173 3.58172 0 8 0H83C87.4183 0 91 3.58172 91 8V100C91 104.418 87.4183 108 83 108H8Z" fill="#FFDBC7"/>
<g id="Group 1321314548">
<path id="path34" d="M41.7714 83.1629V89.709H11.981V83.1629H41.7714Z" fill="#DB5E2B"/>
<path id="path36" d="M56.3502 73.0428V79.5889H11.981V73.0428H56.3502Z" fill="#FFCCB2"/>
<path id="path38" d="M76.4704 62.9227V69.4688H11.981V62.9227H76.4704Z" fill="#F37435"/>
<path id="path40" d="M48.2651 52.8025V59.3486H11.981V52.8025H48.2651Z" fill="#FCBD9E"/>
<path id="path42" d="M11 46.9707V94.3301H81.2086" stroke="#BA4517" stroke-width="0.901899" stroke-miterlimit="10" stroke-linecap="round"/>
<path id="path44" d="M36.5528 9.96113C35.5224 9.96113 34.6872 10.7964 34.6872 11.8268C34.6872 12.8571 35.5224 13.6924 36.5528 13.6924H78.6054C79.6358 13.6924 80.471 12.8571 80.471 11.8268C80.471 10.7964 79.6358 9.96113 78.6054 9.96113H36.5528Z" fill="white"/>
<path id="path46" d="M36.5532 16.9779C35.5226 16.9779 34.6872 17.8134 34.6872 18.8439C34.6872 19.8745 35.5226 20.71 36.5532 20.71H78.605C79.6356 20.71 80.471 19.8745 80.471 18.8439C80.471 17.8134 79.6356 16.9779 78.605 16.9779H36.5532Z" fill="white"/>
<path id="path48" d="M36.5606 23.9963C35.5259 23.9963 34.6872 24.8351 34.6872 25.8697C34.6872 26.9044 35.5259 27.7432 36.5606 27.7432H78.5976C79.6323 27.7432 80.471 26.9044 80.471 25.8697C80.471 24.8351 79.6323 23.9963 78.5976 23.9963H36.5606Z" fill="white"/>
<path id="path50" d="M13 9.96112C11.8954 9.96112 11 10.8566 11 11.9611V25.7432C11 26.8477 11.8954 27.7432 13 27.7432H28.8074C29.912 27.7432 30.8074 26.8477 30.8074 25.7432V11.9611C30.8074 10.8566 29.912 9.96112 28.8074 9.96112H13Z" fill="white"/>
<path id="path52" d="M80.471 32.8801C80.471 31.8495 79.6356 31.0141 78.605 31.0141H12.866C11.8354 31.0141 11 31.8495 11 32.8801C11 33.9106 11.8354 34.7461 12.866 34.7461H78.605C79.6356 34.7461 80.471 33.9106 80.471 32.8801Z" fill="white"/>
<path id="path54" d="M80.471 39.898C80.471 38.8677 79.6358 38.0324 78.6054 38.0324H12.8656C11.8353 38.0324 11 38.8677 11 39.898C11 40.9284 11.8353 41.7637 12.8656 41.7637H78.6054C79.6358 41.7637 80.471 40.9284 80.471 39.898Z" fill="white"/>
</g>
</g>
</svg>
