<svg width="60" height="60" viewBox="0 0 60 60" fill="none" xmlns="http://www.w3.org/2000/svg">
<g id="Mask group">
<mask id="mask0_3586_121225" style="mask-type:alpha" maskUnits="userSpaceOnUse" x="0" y="0" width="60" height="60">
<circle id="Ellipse 1" cx="30" cy="30" r="30" fill="#D9D9D9"/>
</mask>
<g mask="url(#mask0_3586_121225)">
<circle id="Ellipse 2" cx="30" cy="30" r="30" fill="#FDE3F9"/>
<g id="Group 1321314562">
<path id="Vector" d="M31.4935 12.4658V45.5695H14.6322C13.9897 45.5695 13.4694 45.1066 13.4694 44.535V13.5003C13.4694 12.9288 13.9897 12.4658 14.6322 12.4658H31.4935Z" fill="#FCC4FF"/>
<path id="Vector_2" d="M17.82 27.3623H21.5767V31.0151H17.82V27.3623Z" fill="#EFEFEF"/>
<path id="Vector_3" d="M17.82 15.3867H21.5767V19.0395H17.82V15.3867Z" fill="#EFEFEF"/>
<path id="Vector_4" d="M23.9247 27.3623H27.6814V31.0151H23.9247V27.3623Z" fill="#EFEFEF"/>
<path id="Vector_5" d="M23.9247 15.3867H27.6814V19.0395H23.9247V15.3867Z" fill="#EFEFEF"/>
<path id="Vector_6" d="M17.82 33.2988H21.5767V36.9516H17.82V33.2988Z" fill="#EFEFEF"/>
<path id="Vector_7" d="M17.82 21.3223H21.5767V24.9751H17.82V21.3223Z" fill="#EFEFEF"/>
<path id="Vector_8" d="M23.9247 33.2988H27.6814V36.9516H23.9247V33.2988Z" fill="#EFEFEF"/>
<path id="Vector_9" d="M23.9247 21.3223H27.6814V24.9751H23.9247V21.3223Z" fill="#EFEFEF"/>
<path id="Vector_10" d="M17.82 39.2344H21.5767V42.8872H17.82V39.2344Z" fill="#EFEFEF"/>
<path id="Vector_11" d="M23.9247 39.2344H27.6814V42.8872H23.9247V39.2344Z" fill="#EFEFEF"/>
<path id="Vector_12" d="M50.4823 8.57129H31.5584C31.0356 8.57129 30.6122 9.1436 30.6122 9.8502V66.1223H51.4285V9.8502C51.4285 9.1436 51.0051 8.57129 50.4823 8.57129Z" fill="#FFDBC7"/>
<path id="Vector_13" d="M33.3787 18.834H37.1355V22.4868H33.3787V18.834Z" fill="#EFEFEF"/>
<path id="Vector_14" d="M33.3787 12.9238H37.1355V16.5766H33.3787V12.9238Z" fill="#EFEFEF"/>
<path id="Vector_15" d="M39.4834 18.834H43.2401V22.4868H39.4834V18.834Z" fill="#EFEFEF"/>
<path id="Vector_16" d="M39.4834 12.9238H43.2401V16.5766H39.4834V12.9238Z" fill="#EFEFEF"/>
<path id="Vector_17" d="M45.5881 18.834H49.3448V22.4868H45.5881V18.834Z" fill="#EFEFEF"/>
<path id="Vector_18" d="M45.5881 12.9238H49.3448V16.5766H45.5881V12.9238Z" fill="#EFEFEF"/>
<path id="Vector_19" d="M33.3787 24.7705H37.1355V28.4233H33.3787V24.7705Z" fill="#EFEFEF"/>
<path id="Vector_20" d="M39.4834 24.7705H43.2401V28.4233H39.4834V24.7705Z" fill="#EFEFEF"/>
<path id="Vector_21" d="M45.5881 24.7705H49.3448V28.4233H45.5881V24.7705Z" fill="#EFEFEF"/>
<path id="Vector_22" d="M33.3787 30.7061H37.1355V34.3589H33.3787V30.7061Z" fill="#EFEFEF"/>
<path id="Vector_23" d="M39.4834 30.7061H43.2401V34.3589H39.4834V30.7061Z" fill="#EFEFEF"/>
<path id="Vector_24" d="M45.5881 30.7061H49.3448V34.3589H45.5881V30.7061Z" fill="#EFEFEF"/>
<path id="Vector_25" d="M33.3787 36.6416H37.1355V40.2944H33.3787V36.6416Z" fill="#EFEFEF"/>
<path id="Vector_26" d="M39.4834 36.6416H43.2401V40.2944H39.4834V36.6416Z" fill="#EFEFEF"/>
<path id="Vector_27" d="M45.5881 36.6416H49.3448V40.2944H45.5881V36.6416Z" fill="#EFEFEF"/>
</g>
<g id="Group 1321314597">
<path id="Vector_28" d="M36.3383 32.0187C35.7376 32.0187 35.2501 31.5312 35.2501 30.9306V26.9829C35.2501 26.1428 34.5668 25.4595 33.7268 25.4595H25.3786C24.5386 25.4595 23.8552 26.1428 23.8552 26.9829V30.9306C23.8552 31.5312 23.3677 32.0187 22.7671 32.0187C22.1664 32.0187 21.679 31.5312 21.679 30.9306V26.9829C21.679 24.9433 23.339 23.2832 25.3786 23.2832H33.7268C35.7663 23.2832 37.4264 24.9433 37.4264 26.9829V30.9306C37.4264 31.5312 36.9389 32.0187 36.3383 32.0187Z" fill="#E575F2"/>
<path id="Vector_29" d="M47.1824 36.0566H11.8318C11.2326 36.0566 10.7463 36.6473 10.7463 37.3752V57.918C10.7463 60.3895 12.4023 62.401 14.437 62.401H44.5764C46.611 62.401 48.267 60.3895 48.267 57.918V37.3752C48.267 36.6473 47.7807 36.0566 47.1815 36.0566H47.1824Z" fill="#C45CD4"/>
<path id="Vector_30" d="M44.6594 29.8428H14.4459C12.4063 29.8428 10.7463 31.5028 10.7463 33.5424V38.5739C10.7463 40.0068 11.5854 41.3239 12.8851 41.928L19.6663 45.0836C20.1521 45.3099 20.6918 45.4292 21.2272 45.4292H37.8773C38.4127 45.4292 38.9524 45.3099 39.4381 45.0836L46.2194 41.928C47.519 41.3239 48.3582 40.0068 48.3582 38.5739V33.5424C48.3582 31.5028 46.6982 29.8428 44.6586 29.8428H44.6594Z" fill="#872B94"/>
<g id="Group">
<path id="Vector_31" d="M23.111 47.5071C22.5103 47.5071 22.0228 47.0196 22.0228 46.4189V42.2649C22.0228 41.6642 22.5103 41.1768 23.111 41.1768C23.7116 41.1768 24.1991 41.6642 24.1991 42.2649V46.4189C24.1991 47.0196 23.7116 47.5071 23.111 47.5071Z" fill="#FFBE00"/>
<path id="Vector_32" d="M35.9944 47.5071C35.3938 47.5071 34.9063 47.0196 34.9063 46.4189V42.2649C34.9063 41.6642 35.3938 41.1768 35.9944 41.1768C36.5951 41.1768 37.0826 41.6642 37.0826 42.2649V46.4189C37.0826 47.0196 36.5951 47.5071 35.9944 47.5071Z" fill="#FFBE00"/>
</g>
</g>
</g>
</g>
</svg>
